REM DIRINDEX 1\2\5,1\2\6,1\2\7,1\2\8,1\3\9,1\3\10,1\3\11,1\4\12,1\4\13,1\4\14,1\4\15,1\4\16
REM DIRNAME folder01,folder02,folder03,folder04,folder05,folder06,folder07,folder08,folder09,folder10,folder11,folder12,folder13,folder14,folder15,folder16
TITLE ""
FILE "1200_sec03_1045_1053.mp3" MP3
  TRACK 01 AUDIO
    TITLE "0:"
    INDEX 01 00:00:00
  TRACK 02 AUDIO
    TITLE "12:cjc034_07866"
    INDEX 01 00:00:17
  TRACK 03 AUDIO
    TITLE "0:"
    INDEX 01 00:01:42
  TRACK 04 AUDIO
    TITLE "13:cjc034_07867"
    INDEX 01 00:01:73
  TRACK 05 AUDIO
    TITLE "0:"
    INDEX 01 00:03:04
  TRACK 06 AUDIO
    TITLE "14:cjc034_07868"
    INDEX 01 00:03:37
  TRACK 07 AUDIO
    TITLE "0:"
    INDEX 01 00:04:60
  TRACK 08 AUDIO
    TITLE "15:cjc034_07869"
    INDEX 01 00:05:16
  TRACK 09 AUDIO
    TITLE "0:"
    INDEX 01 00:11:11
  TRACK 10 AUDIO
    TITLE "12:cjc034_07870"
    INDEX 01 00:12:40
  TRACK 11 AUDIO
    TITLE "0:"
    INDEX 01 00:13:59
  TRACK 12 AUDIO
    TITLE "13:cjc034_07871"
    INDEX 01 00:14:17
  TRACK 13 AUDIO
    TITLE "0:"
    INDEX 01 00:15:48
  TRACK 14 AUDIO
    TITLE "14:cjc034_07872"
    INDEX 01 00:16:04
  TRACK 15 AUDIO
    TITLE "0:"
    INDEX 01 00:17:23
  TRACK 16 AUDIO
    TITLE "15:cjc034_07873"
    INDEX 01 00:17:57
  TRACK 17 AUDIO
    TITLE "0:"
    INDEX 01 00:22:72
  TRACK 18 AUDIO
    TITLE "12:cjc034_07874"
    INDEX 01 00:24:31
  TRACK 19 AUDIO
    TITLE "0:"
    INDEX 01 00:25:50
  TRACK 20 AUDIO
    TITLE "13:cjc034_07875"
    INDEX 01 00:26:15
  TRACK 21 AUDIO
    TITLE "0:"
    INDEX 01 00:28:57
  TRACK 22 AUDIO
    TITLE "14:cjc034_07876"
    INDEX 01 00:29:15
  TRACK 23 AUDIO
    TITLE "0:"
    INDEX 01 00:30:36
  TRACK 24 AUDIO
    TITLE "15:cjc034_07877"
    INDEX 01 00:30:71
  TRACK 25 AUDIO
    TITLE "0:"
    INDEX 01 00:34:43
  TRACK 26 AUDIO
    TITLE "12:cjc034_07878"
    INDEX 01 00:36:01
  TRACK 27 AUDIO
    TITLE "0:"
    INDEX 01 00:37:30
  TRACK 28 AUDIO
    TITLE "13:cjc034_07879"
    INDEX 01 00:37:63
  TRACK 29 AUDIO
    TITLE "0:"
    INDEX 01 00:39:13
  TRACK 30 AUDIO
    TITLE "14:cjc034_07880"
    INDEX 01 00:39:45
  TRACK 31 AUDIO
    TITLE "0:"
    INDEX 01 00:41:02
  TRACK 32 AUDIO
    TITLE "15:cjc034_07881"
    INDEX 01 00:41:32
  TRACK 33 AUDIO
    TITLE "0:"
    INDEX 01 00:45:43
  TRACK 34 AUDIO
    TITLE "16:cjc034_07882"
    INDEX 01 00:46:72
  TRACK 35 AUDIO
    TITLE "0:"
    INDEX 01 00:52:63
  TRACK 36 AUDIO
    TITLE "12:cjc034_07883"
    INDEX 01 00:53:64
  TRACK 37 AUDIO
    TITLE "0:"
    INDEX 01 00:55:16
  TRACK 38 AUDIO
    TITLE "13:cjc034_07884"
    INDEX 01 00:55:50
  TRACK 39 AUDIO
    TITLE "0:"
    INDEX 01 00:59:67
  TRACK 40 AUDIO
    TITLE "14:cjc034_07885"
    INDEX 01 01:00:27
  TRACK 41 AUDIO
    TITLE "0:"
    INDEX 01 01:01:52
  TRACK 42 AUDIO
    TITLE "15:cjc034_07886"
    INDEX 01 01:02:10
  TRACK 43 AUDIO
    TITLE "0:"
    INDEX 01 01:06:36
  TRACK 44 AUDIO
    TITLE "12:cjc034_07887"
    INDEX 01 01:07:70
  TRACK 45 AUDIO
    TITLE "0:"
    INDEX 01 01:09:20
  TRACK 46 AUDIO
    TITLE "13:cjc034_07888"
    INDEX 01 01:09:52
  TRACK 47 AUDIO
    TITLE "0:"
    INDEX 01 01:10:59
  TRACK 48 AUDIO
    TITLE "14:cjc034_07889"
    INDEX 01 01:11:17
  TRACK 49 AUDIO
    TITLE "0:"
    INDEX 01 01:12:40
  TRACK 50 AUDIO
    TITLE "15:cjc034_07890"
    INDEX 01 01:13:00
  TRACK 51 AUDIO
    TITLE "0:"
    INDEX 01 01:17:22
  TRACK 52 AUDIO
    TITLE "12:cjc034_07891"
    INDEX 01 01:18:56
  TRACK 53 AUDIO
    TITLE "0:"
    INDEX 01 01:20:00
  TRACK 54 AUDIO
    TITLE "13:cjc034_07892"
    INDEX 01 01:20:32
  TRACK 55 AUDIO
    TITLE "0:"
    INDEX 01 01:22:62
  TRACK 56 AUDIO
    TITLE "14:cjc034_07893"
    INDEX 01 01:23:18
  TRACK 57 AUDIO
    TITLE "0:"
    INDEX 01 01:24:36
  TRACK 58 AUDIO
    TITLE "15:cjc034_07894"
    INDEX 01 01:24:69
  TRACK 59 AUDIO
    TITLE "0:"
    INDEX 01 01:28:41
  TRACK 60 AUDIO
    TITLE "12:cjc034_07895"
    INDEX 01 01:30:05
  TRACK 61 AUDIO
    TITLE "0:"
    INDEX 01 01:31:10
  TRACK 62 AUDIO
    TITLE "13:cjc034_07896"
    INDEX 01 01:31:41
  TRACK 63 AUDIO
    TITLE "0:"
    INDEX 01 01:32:55
  TRACK 64 AUDIO
    TITLE "14:cjc034_07897"
    INDEX 01 01:33:21
  TRACK 65 AUDIO
    TITLE "0:"
    INDEX 01 01:34:26
  TRACK 66 AUDIO
    TITLE "15:cjc034_07898"
    INDEX 01 01:34:57
  TRACK 67 AUDIO
    TITLE "0:"
    INDEX 01 01:38:51
  TRACK 68 AUDIO
    TITLE "12:cjc034_07899"
    INDEX 01 01:40:07
  TRACK 69 AUDIO
    TITLE "0:"
    INDEX 01 01:41:48
  TRACK 70 AUDIO
    TITLE "13:cjc034_07900"
    INDEX 01 01:42:08
  TRACK 71 AUDIO
    TITLE "0:"
    INDEX 01 01:44:26
  TRACK 72 AUDIO
    TITLE "14:cjc034_07901"
    INDEX 01 01:44:56
  TRACK 73 AUDIO
    TITLE "0:"
    INDEX 01 01:46:23
  TRACK 74 AUDIO
    TITLE "15:cjc034_07902"
    INDEX 01 01:46:57
  TRACK 75 AUDIO
    TITLE "0:"
    INDEX 01 01:52:26
